# xmcd CD database file
#
# Track frame offsets:
#	150
#	13702
#	34032
#	41902
#	64300
#	85442
#
# Disc length: 1456 seconds
#
# Revision: 0
# Processed by: cddbd v1.5.1PL2 Copyright (c) Steve Scherf et al.
# Submitted via: CDex 1.51
#
DISCID=4d05ae06
DTITLE=椎名祐海 - ＨＵＳＨ
DYEAR=1997
DGENRE=Rock
TTITLE0=ＨＵＳＨ
TTITLE1=ＭＥＲＣＥＤＥＳ　ＢＥＮＺ
TTITLE2=ＴＡＫＥ　ＭＥ　ＷＩＴＨ　Ｕ
TTITLE3=ＮＯＴＨＩＮＧ　ＣＯＭＰＡＲＥＳ　２Ｕ
TTITLE4=Ｉ’Ｍ　ＦＲＥＥ
TTITLE5=ＰＩＥＣＥ　ＯＦ　ＭＹ　ＨＥＡＲＴ
EXTD=YEAR: 1997
EXTT0=
EXTT1=
EXTT2=
EXTT3=
EXTT4=
EXTT5=
PLAYORDER=
